<svg xmlns="http://www.w3.org/2000/svg" viewBox="0 0 96 96" role="img" aria-label="わんこボウリング">
  <defs>
    <linearGradient id="pin" x1="0" y1="0" x2="1" y2="1">
      <stop offset="0" stop-color="#fffaf0"/>
      <stop offset="0.62" stop-color="#f8ead5"/>
      <stop offset="1" stop-color="#f0dcc1"/>
    </linearGradient>
    <linearGradient id="ball" x1="0" y1="0" x2="1" y2="1">
      <stop offset="0" stop-color="#dfb66f"/>
      <stop offset="0.7" stop-color="#c99955"/>
      <stop offset="1" stop-color="#b78345"/>
    </linearGradient>
  </defs>

  <path d="M61 9c5.2 0 8.2 4.5 7.3 9.1-.7 3.2-2.9 5.3-2.9 8.5 0 4.1 6.7 9.7 9.4 18.9 2.8 9.5 2.3 20.6-1.4 29.2-2.4 5.5-7.2 8.6-12.4 8.6s-10-3.1-12.4-8.6c-3.7-8.6-4.2-19.7-1.4-29.2 2.7-9.2 9.4-14.8 9.4-18.9 0-3.2-2.2-5.3-2.9-8.5C52.8 13.5 55.8 9 61 9Z" fill="url(#pin)" stroke="#cba780" stroke-width="2.2" stroke-linejoin="round"/>
  <path d="M54.6 27.8c4.1 1.6 8.8 1.6 12.8 0" fill="none" stroke="#d9ad86" stroke-width="4.1" stroke-linecap="round" opacity=".8"/>
  <path d="M57.2 15.3c-1.3 2.2-1.4 4.6-.7 6.7" fill="none" stroke="#fff" stroke-width="2.7" stroke-linecap="round" opacity=".9"/>
  <path d="M53 41.8c-2.9 5.4-4.1 10.8-4.2 16.4" fill="none" stroke="#fff" stroke-width="3.3" stroke-linecap="round" opacity=".76"/>

  <circle cx="38" cy="65" r="25.5" fill="url(#ball)" stroke="#96713c" stroke-width="2.4"/>
  <path d="M22.1 55.6c1.8-5.2 5.2-8.9 9.8-11.3" fill="none" stroke="#efd39a" stroke-width="3.3" stroke-linecap="round" opacity=".7"/>

  <g fill="#816233" opacity=".88">
    <circle cx="34" cy="58" r="3.2"/>
    <circle cx="43" cy="57" r="3.1"/>
    <circle cx="29" cy="64" r="3"/>
    <circle cx="48" cy="64" r="3"/>
    <path d="M38.5 65.7c5.1 0 8.6 5.2 6.1 9.4-1.1 1.9-3.1 2.8-6.1 1.7-3 1.1-5 .2-6.1-1.7-2.5-4.2 1-9.4 6.1-9.4Z"/>
  </g>
</svg>
