<svg xmlns="http://www.w3.org/2000/svg" viewBox="0 0 32 32" role="img" aria-label="雪国のフレブル">
  <path d="M25.2 15.2c3.1-2 4.2.5 2.3 1.8-1 .7-2.2.3-2.8-.4" fill="none" stroke="#6f6255" stroke-width="1.35" stroke-linecap="round"/>
  <ellipse cx="18.2" cy="19" rx="8" ry="6.3" fill="#f7f0e4" stroke="#655a50" stroke-width="1"/>
  <path d="M13.4 22.3h4.2v6.1c0 1.2-.9 2-2.1 2h-.2c-1.2 0-1.9-.8-1.9-2z" fill="#f7f0e4" stroke="#655a50" stroke-width="1"/>
  <path d="M21.3 22.2h4v5.8c0 1.2-.8 2-2 2h-.2c-1.1 0-1.8-.8-1.8-2z" fill="#f7f0e4" stroke="#655a50" stroke-width="1"/>
  <path d="M11.8 17.3c3.6-1.8 9.4-2.2 13.8.8v5.7c-4 1.7-9.3 1.6-12.9-.6z" fill="#a9d4ef" opacity=".96"/>
  <path d="M14.5 18.5h10.3M14 21.1h11" stroke="#78afd1" stroke-width=".65" opacity=".85"/>
  <path d="M8.2 17.3c2.8 1.4 7.2 1.6 10.3.1" fill="none" stroke="#8fc5e6" stroke-width="2.3" stroke-linecap="round"/>
  <path d="M15.2 17.9v5.3" stroke="#fff" stroke-width=".85" opacity=".75"/>
  <path d="M5.7 9.2C4.5 5.9 5.6 2.4 6 2c2.7 1.3 4.5 3.4 4.9 6.4z" fill="#f7f0e4" stroke="#655a50" stroke-width="1"/>
  <path d="M15.5 8.5c.4-4 2.4-6.2 5.2-7.1.6.6 1.7 4.3-.1 8.2z" fill="#f7f0e4" stroke="#655a50" stroke-width="1"/>
  <path d="M6.8 7.2C6.4 5.5 6.8 4.1 7.1 3.6c1.1.8 2 2 2.4 3.6z" fill="#efb5a6"/>
  <path d="M17.2 7.1c.5-1.7 1.5-3 2.6-3.7.3.8.4 2.3-.1 3.9z" fill="#efb5a6"/>
  <ellipse cx="13" cy="14.1" rx="8.2" ry="7.3" fill="#fbf6ec" stroke="#655a50" stroke-width="1"/>
  <path d="M13.6 7.5c3.9-.8 6.6 1.3 6.8 4.7.1 2.1-1.2 3.9-3.1 4.4-2.6.6-4.6-1-4.7-3.7-.1-2 .4-4.1 1-5.4z" fill="#a99482" opacity=".9"/>
  <circle cx="9.8" cy="13.2" r="1.05" fill="#403a35"/>
  <circle cx="16.5" cy="13.1" r="1.05" fill="#403a35"/>
  <ellipse cx="12.9" cy="16" rx="3.7" ry="2.5" fill="#fffdf8"/>
  <ellipse cx="12.8" cy="15.1" rx="1.35" ry="1" fill="#403a35"/>
  <path d="M11.1 17.1c1 .9 2.4 1 3.5 0" fill="none" stroke="#655a50" stroke-width=".85" stroke-linecap="round"/>
  <path d="M12.2 17.5c.7.5 1.3.5 1.9 0-.1 1.5-.6 2.2-1 2.2-.5 0-.9-.7-.9-2.2z" fill="#e9998c"/>
  <circle cx="8" cy="16.2" r="1" fill="#efb0a4" opacity=".6"/>
  <circle cx="18" cy="16.1" r="1" fill="#efb0a4" opacity=".6"/>
  <path d="M5.8 8.9c.4-4.1 3-6.5 7-6.5 4.1 0 6.8 2.6 7.1 6.5z" fill="#9dcfea" stroke="#655a50" stroke-width=".9"/>
  <rect x="5.1" y="7.4" width="15.5" height="2.8" rx="1.4" fill="#f3f3ef" stroke="#655a50" stroke-width=".8"/>
  <circle cx="12.8" cy="1.8" r="1.8" fill="#f3f3ef" stroke="#655a50" stroke-width=".75"/>
  <path d="M8.1 4.9l1 1m2-1.7.2 1.3m2.3-1.3-.2 1.3m2-1.1-.8 1.1" stroke="#e7f3fb" stroke-width=".65" stroke-linecap="round"/>
</svg>
